<svg xmlns="http://www.w3.org/2000/svg" width="152" height="152" viewBox="0 0 152 152">
  <defs>
    <style>
      .cls-1 {
        fill: #fbfbfb;
      }

      .cls-2 {
        fill: #f5f6f6;
      }
    </style>
  </defs>
  <g id="Group_363" data-name="Group 363" transform="translate(-112 -65)">
    <circle id="Ellipse_86" data-name="Ellipse 86" class="cls-1" cx="76" cy="76" r="76" transform="translate(112 65)"/>
    <path id="Subtraction_1" data-name="Subtraction 1" class="cls-2" d="M-3424.705-1152.821h0c-5.139-7.659-16.3-12.5-24.75-15.216a106.233,106.233,0,0,0-30.045-5.087,106.282,106.282,0,0,0-29.572,4.936c-8.331,2.629-19.4,7.325-24.8,14.768a75.74,75.74,0,0,1-15.469-23.758A75.577,75.577,0,0,1-3555-1206a75.527,75.527,0,0,1,5.972-29.582,76,76,0,0,1,7.007-12.91,76.565,76.565,0,0,1,9.28-11.248,76.548,76.548,0,0,1,11.248-9.28,75.989,75.989,0,0,1,12.91-7.007A75.525,75.525,0,0,1-3479-1282a75.523,75.523,0,0,1,29.583,5.973,76.007,76.007,0,0,1,12.909,7.007,76.549,76.549,0,0,1,11.248,9.28,76.565,76.565,0,0,1,9.28,11.248,76,76,0,0,1,7.007,12.91A75.528,75.528,0,0,1-3403-1206a75.551,75.551,0,0,1-5.818,29.213,75.757,75.757,0,0,1-15.886,23.965ZM-3479.5-1245a28.782,28.782,0,0,0-28.75,28.75,28.783,28.783,0,0,0,28.75,28.75,28.783,28.783,0,0,0,28.75-28.75A28.782,28.782,0,0,0-3479.5-1245Z" transform="translate(3667 1347)"/>
  </g>
</svg>
