<svg xmlns="http://www.w3.org/2000/svg" viewBox="0 0 60 64"><defs><style>.cls-1{fill:#292929;}</style></defs><title>broadcast</title><g id="Layer_2" data-name="Layer 2"><g id="Layer_1-2" data-name="Layer 1"><path class="cls-1" d="M27,11a1,1,0,0,0,1.4,1.4,3.74,3.74,0,0,1,5.2,0A1,1,0,0,0,35,11,5.67,5.67,0,0,0,27,11Z"/><path class="cls-1" d="M38.5,9a1,1,0,0,0,0-1.4,10.56,10.56,0,0,0-14.9,0A1,1,0,1,0,25,9,8.63,8.63,0,0,1,37.1,9,1,1,0,0,0,38.5,9Z"/><path class="cls-1" d="M21.9,5.8a13,13,0,0,1,18.4,0,1,1,0,1,0,1.4-1.4A15.16,15.16,0,0,0,31.1,0,15,15,0,0,0,20.5,4.4a1,1,0,1,0,1.4,1.4Z"/><polygon class="cls-1" points="22.2 39.5 22.2 45.5 26 42.5 22.2 39.5"/><path class="cls-1" d="M54.3,21H36.1a3.81,3.81,0,0,0-.5-1.5l8.2-8a3.08,3.08,0,0,0,4.5-2.8,3.12,3.12,0,0,0-3.1-3.1A3.06,3.06,0,0,0,42.5,10l-8.1,7.9a4.45,4.45,0,0,0-2.9-1,4.68,4.68,0,0,0-2.8.9L17.2,6.1a3.17,3.17,0,0,0-2.5-5,3.11,3.11,0,1,0,.9,6.1L27.4,19.3a4.92,4.92,0,0,0-.6,1.7H5.8A5.78,5.78,0,0,0,0,26.7V58.3A5.76,5.76,0,0,0,5.7,64H54.3A5.7,5.7,0,0,0,60,58.3V26.7A5.76,5.76,0,0,0,54.3,21Zm-6,28.1a.91.91,0,0,1-.4.8,1,1,0,0,1-.9.2l-9.9-2.7v4.7a.94.94,0,0,1-1,1H12.6a.94.94,0,0,1-1-1V32.9a.94.94,0,0,1,1-1H36.2a.94.94,0,0,1,1,1v4.7l9.9-2.7a1,1,0,0,1,.9.2,1.23,1.23,0,0,1,.4.8V49.1Z"/><path class="cls-1" d="M13.6,51.1H35.2V34H13.6Zm6.6-13.6a1,1,0,0,1,.6-.9,1.1,1.1,0,0,1,1.1.1l6.5,5a1.23,1.23,0,0,1,.4.8.91.91,0,0,1-.4.8l-6.5,5a1.07,1.07,0,0,1-1.1.1,1.15,1.15,0,0,1-.6-.9Z"/><polygon class="cls-1" points="37.2 45.3 46.3 47.8 46.3 37.2 37.2 39.7 37.2 45.3"/></g></g></svg>