<svg xmlns="http://www.w3.org/2000/svg" xmlns:xlink="http://www.w3.org/1999/xlink" width="48" height="45" viewBox="0 0 48 45">
  <defs>
    <style>
      .cls-1 {
        fill: #3a3a3a;
      }

      .cls-2 {
        filter: url(#Path_89);
      }
    </style>
    <filter id="Path_89" x="0" y="0" width="48" height="45" filterUnits="userSpaceOnUse">
      <feOffset dy="3" input="SourceAlpha"/>
      <feGaussianBlur stdDeviation="3" result="blur"/>
      <feFlood flood-opacity="0.161"/>
      <feComposite operator="in" in2="blur"/>
      <feComposite in="SourceGraphic"/>
    </filter>
  </defs>
  <g id="ic_camera_alt_24px" transform="translate(7 4)">
    <circle id="Ellipse_14" data-name="Ellipse 14" class="cls-1" cx="3.2" cy="3.2" r="3.2" transform="translate(13.8 14.076)"/>
    <g class="cls-2" transform="matrix(1, 0, 0, 1, -7, -4)">
      <path id="Path_89-2" data-name="Path 89" class="cls-1" d="M12.5,2,9.755,5H5A3.009,3.009,0,0,0,2,8V26a3.009,3.009,0,0,0,3,3H29a3.009,3.009,0,0,0,3-3V8a3.009,3.009,0,0,0-3-3H24.245L21.5,2ZM17,24.5A7.5,7.5,0,1,1,24.5,17,7.5,7.5,0,0,1,17,24.5Z" transform="translate(7 4)"/>
    </g>
  </g>
</svg>
