<svg xmlns="http://www.w3.org/2000/svg" width="19" height="17" viewBox="0 0 19 17">
  <g id="download" transform="translate(0 -2)">
    <path id="Path_351" data-name="Path 351" d="M14.853,9.647a.5.5,0,0,0-.707,0L10,13.793V2.5a.5.5,0,0,0-1,0V13.793L4.854,9.647a.5.5,0,0,0-.707.707l5,5a.5.5,0,0,0,.708,0l5-5a.5.5,0,0,0,0-.707Z"/>
    <path id="Path_352" data-name="Path 352" d="M17.5,19H1.5A1.5,1.5,0,0,1,0,17.5v-2a.5.5,0,0,1,1,0v2a.5.5,0,0,0,.5.5h16a.5.5,0,0,0,.5-.5v-2a.5.5,0,0,1,1,0v2A1.5,1.5,0,0,1,17.5,19Z"/>
  </g>
</svg>
