<svg xmlns="http://www.w3.org/2000/svg" viewBox="0 0 62.57 62.58"><title>earth-america</title><g id="Layer_2" data-name="Layer 2"><g id="Layer_1-2" data-name="Layer 1"><path d="M0,31.29C-.08,14.52,14.09.18,30.94,0A31.54,31.54,0,0,1,62.57,31.31a31.53,31.53,0,0,1-31.3,31.26A31.51,31.51,0,0,1,0,31.29ZM50.33,47.08c11-11.37,6-33.68-9.37-38.35-.64,5.39-3.93,7.3-9.1,7-2.94-.19-3.84,1.82-3.65,4.45s-.57,4.22-3.29,5.09c-1.17.38-1.92,2.08-2.86,3.17,1.23,1,2.37,2.55,3.72,2.75a64.26,64.26,0,0,0,9,.14c5.42,0,5.92.51,6,6,0,.75,0,1.5,0,2.25-.11,2.53,1,3.76,3.55,4.41C46.26,44.51,48.06,45.88,50.33,47.08ZM7.24,26.22C3.42,39.82,13.76,54.38,28,55.8V50.26c-4.13-.9-6.24-3.36-6.09-7.67a3.61,3.61,0,0,0-.65-2.42C16.69,35.51,12,30.95,7.24,26.22Z"/></g></g></svg>