<svg xmlns="http://www.w3.org/2000/svg" viewBox="0 0 86.19 58.15"><title>feed</title><g id="Layer_2" data-name="Layer 2"><g id="Layer_1-2" data-name="Layer 1"><path d="M43.09,0a21.77,21.77,0,0,0-7.87,1.31L2.84,14.63A7.07,7.07,0,0,0,.56,16a1.47,1.47,0,0,0,0,2.31,7,7,0,0,0,2.28,1.41L35.22,33a24.34,24.34,0,0,0,15.72,0L83.34,19.72a6.85,6.85,0,0,0,2.25-1.41,1.66,1.66,0,0,0,.59-1.16A1.66,1.66,0,0,0,85.59,16a6.87,6.87,0,0,0-2.25-1.37L50.94,1.31A21.59,21.59,0,0,0,43.09,0ZM8.78,24.13,2.84,26.53A6.86,6.86,0,0,0,.59,27.91a1.42,1.42,0,0,0,0,2.31,6.84,6.84,0,0,0,2.25,1.41L9,34.19l.09,0L35.22,44.94a24.34,24.34,0,0,0,15.72,0L77.06,34.22l6.28-2.59a6.84,6.84,0,0,0,2.25-1.41,1.42,1.42,0,0,0,0-2.31,6.85,6.85,0,0,0-2.25-1.37L77.4,24.12,51.62,34.69a25.15,25.15,0,0,1-17.09,0L8.78,24.13ZM8.78,36,2.84,38.44A6.86,6.86,0,0,0,.59,39.81a1.42,1.42,0,0,0,0,2.31,6.84,6.84,0,0,0,2.25,1.41L35.22,56.84a24.34,24.34,0,0,0,15.72,0L83.34,43.53a6.84,6.84,0,0,0,2.25-1.41,1.42,1.42,0,0,0,0-2.31,6.86,6.86,0,0,0-2.25-1.37L77.41,36,51.63,46.59a25.14,25.14,0,0,1-17.09,0L8.78,36Z"/></g></g></svg>