<svg xmlns="http://www.w3.org/2000/svg" width="30.023" height="22.735" viewBox="0 0 30.023 22.735">
  <g id="layers" transform="translate(0.544 0.504)">
    <path id="Path_3902" data-name="Path 3902" d="M14.487,23.981a.727.727,0,0,1-.281-.056L.443,18.129a.725.725,0,0,1,0-1.336L14.206,11a.727.727,0,0,1,.562,0l13.763,5.795a.725.725,0,0,1,0,1.336L14.768,23.924A.727.727,0,0,1,14.487,23.981ZM2.59,17.462l11.9,5.008,11.9-5.008-11.9,4.468Z" transform="translate(0 -10.942)" stroke="#000" stroke-width="1"/>
    <path id="Path_3903" data-name="Path 3903" d="M14.487,43.718a.727.727,0,0,1-.281-.057L.443,37.866a.725.725,0,1,1,.562-1.336l13.482,5.676L27.969,36.53a.725.725,0,1,1,.562,1.336L14.768,43.661A.727.727,0,0,1,14.487,43.718Z" transform="translate(0.001 -26.333)" stroke="#000" stroke-width="1"/>
    <path id="Path_3904" data-name="Path 3904" d="M14.487,54.66a.727.727,0,0,1-.281-.056L.443,48.809a.725.725,0,1,1,.562-1.336l13.482,5.676,13.482-5.676a.725.725,0,1,1,.562,1.336L14.768,54.6A.727.727,0,0,1,14.487,54.66Z" transform="translate(0.001 -32.929)" stroke="#000" stroke-width="1"/>
  </g>
</svg>
