<svg xmlns="http://www.w3.org/2000/svg" width="16.997" height="16.997" viewBox="0 0 16.997 16.997">
  <g id="link" transform="translate(-1.001 -2.001)">
    <path id="Path_349" data-name="Path 349" d="M10.682,13a3.671,3.671,0,0,1-2.6-1.077.5.5,0,1,1,.707-.707,2.685,2.685,0,0,0,3.793,0l3.636-3.636a2.682,2.682,0,0,0-3.793-3.793L9.353,6.853a.5.5,0,0,1-.707-.707l3.068-3.068a3.682,3.682,0,1,1,5.207,5.207l-3.636,3.636A3.671,3.671,0,0,1,10.681,13Z"/>
    <path id="Path_350" data-name="Path 350" d="M4.682,19a3.681,3.681,0,0,1-2.6-6.284L5.714,9.078a3.685,3.685,0,0,1,5.207,0,.5.5,0,0,1-.707.707,2.685,2.685,0,0,0-3.793,0L2.785,13.421a2.682,2.682,0,1,0,3.793,3.793l3.068-3.068a.5.5,0,1,1,.707.707L7.285,17.921A3.671,3.671,0,0,1,4.681,19Z"/>
  </g>
</svg>
