<svg xmlns="http://www.w3.org/2000/svg" xmlns:xlink="http://www.w3.org/1999/xlink" width="58.649" height="55.002" viewBox="0 0 58.649 55.002">
  <defs>
    <style>
      .cls-1 {
        fill: #fff;
      }

      .cls-2, .cls-4 {
        fill: #292929;
      }

      .cls-3, .cls-4 {
        stroke: none;
      }

      .cls-5 {
        filter: url(#Union_2);
      }

      .cls-6 {
        filter: url(#Union_1);
      }
    </style>
    <filter id="Union_1" x="0" y="0" width="36.28" height="45.439" filterUnits="userSpaceOnUse">
      <feOffset dy="3" input="SourceAlpha"/>
      <feGaussianBlur stdDeviation="3" result="blur"/>
      <feFlood flood-opacity="0.161"/>
      <feComposite operator="in" in2="blur"/>
      <feComposite in="SourceGraphic"/>
    </filter>
    <filter id="Union_2" x="22.368" y="9.563" width="36.28" height="45.439" filterUnits="userSpaceOnUse">
      <feOffset dy="3" input="SourceAlpha"/>
      <feGaussianBlur stdDeviation="3" result="blur-2"/>
      <feFlood flood-opacity="0.161"/>
      <feComposite operator="in" in2="blur-2"/>
      <feComposite in="SourceGraphic"/>
    </filter>
  </defs>
  <g id="Group_1" data-name="Group 1" transform="translate(-16.089 -32.001)">
    <g class="cls-6" transform="matrix(1, 0, 0, 1, 16.09, 32)">
      <g id="Union_1-2" data-name="Union 1" class="cls-1" transform="translate(9 6)">
        <path class="cls-3" d="M 10.44202995300293 26.93899536132813 C 9.118529319763184 26.93899536132813 7.832759857177734 26.59740447998047 6.620439529418945 25.92371559143066 C 6.033439636230469 25.59748458862305 5.466599464416504 25.19312477111816 4.935689449310303 24.72188568115234 C 4.406789779663086 24.25240516662598 3.909069538116455 23.71270561218262 3.456359624862671 23.11776542663574 C 2.531799554824829 21.90323448181152 1.805139660835266 20.48635482788086 1.296499609947205 18.90640449523926 C 0.767979621887207 17.26478576660156 0.4999996423721313 15.51965522766113 0.4999996423721313 13.71949481964111 C 0.4999996423721313 11.91927528381348 0.767979621887207 10.17406463623047 1.296499609947205 8.532344818115234 C 1.805159687995911 6.952455043792725 2.531819581985474 5.535604953765869 3.456299543380737 4.321174621582031 C 3.90904974937439 3.726174831390381 4.406769752502441 3.186474800109863 4.935689449310303 2.716984748840332 C 5.466599464416504 2.24572491645813 6.033429622650146 1.84137487411499 6.620449542999268 1.515154838562012 C 7.832599639892578 0.8415548205375671 9.118370056152344 0.5000048279762268 10.44202995300293 0.5000048279762268 C 11.15016269683838 0.5000048279762268 11.85076236724854 0.5987580418586731 12.53525161743164 0.794419527053833 C 10.82557487487793 1.812565326690674 9.353869438171387 3.382571697235107 8.236339569091797 5.392634868621826 C 7.24524974822998 7.175274848937988 6.601159572601318 9.171554565429688 6.321949481964111 11.32604503631592 L 6.140039443969727 12.72973442077637 L 7.163269519805908 11.75176525115967 C 8.319890022277832 10.64630508422852 9.696229934692383 10.06198501586914 11.143479347229 10.06198501586914 C 14.80307006835938 10.06198501586914 17.78035926818848 13.84742450714111 17.78035926818848 18.50036430358887 C 17.78035926818848 23.15336418151855 14.80307006835938 26.93886566162109 11.143479347229 26.93886566162109 C 11.04630947113037 26.93886566162109 10.94780921936035 26.93614387512207 10.85069942474365 26.93078422546387 L 10.82516002655029 26.92937469482422 L 10.79960918426514 26.93057441711426 C 10.68105983734131 26.93616485595703 10.56075000762939 26.93899536132813 10.44202995300293 26.93899536132813 Z"/>
        <path class="cls-4" d="M 10.44202995300293 26.43899536132813 C 10.55293941497803 26.43899536132813 10.6653299331665 26.43634414672852 10.77608966827393 26.4311351776123 L 10.82718944549561 26.42872428894043 L 10.87826919555664 26.43154525756836 C 10.96623992919922 26.43640518188477 11.05546951293945 26.43886566162109 11.143479347229 26.43886566162109 C 14.52736949920654 26.43886566162109 17.28035926818848 22.87766456604004 17.28035926818848 18.50036430358887 C 17.28035926818848 14.12312507629395 14.52736949920654 10.56198501586914 11.143479347229 10.56198501586914 C 9.827409744262695 10.56198501586914 8.570529937744141 11.0983943939209 7.508739471435547 12.11322498321533 L 5.46226978302002 14.06915473937988 L 5.826089859008789 11.26178455352783 C 6.11346960067749 9.044264793395996 6.777369499206543 6.987854957580566 7.799339771270752 5.149674892425537 C 8.734635353088379 3.467397928237915 9.911858558654785 2.080110788345337 11.26799201965332 1.048362493515015 C 10.99424648284912 1.016170620918274 10.71869277954102 1.000004768371582 10.44202995300293 1.000004768371582 C 9.204360008239746 1.000004768371582 8.000309944152832 1.320374846458435 6.863329410552979 1.952194809913635 C 6.308159828186035 2.260724782943726 5.771279811859131 2.643844842910767 5.267609596252441 3.090914726257324 C 4.762889862060547 3.538934707641602 4.287369728088379 4.054694652557373 3.854139566421509 4.624024868011475 C 2.964069604873657 5.793254852294922 2.263689517974854 7.159764766693115 1.772449612617493 8.685564994812012 C 1.259889602661133 10.27770519256592 0.9999996423721313 11.97136497497559 0.9999996423721313 13.71949481964111 C 0.9999996423721313 15.46756458282471 1.259889602661133 17.16113471984863 1.772449612617493 18.7531852722168 C 2.263669729232788 20.27905464172363 2.964049577713013 21.64558410644531 3.854259729385376 22.81499481201172 C 4.287379741668701 23.38418388366699 4.762899398803711 23.89994430541992 5.267599582672119 24.34794425964355 C 5.771269798278809 24.79501533508301 6.308159828186035 25.17813491821289 6.863309860229492 25.48666572570801 C 8.000459671020508 26.11858558654785 9.204519271850586 26.43899536132813 10.44202995300293 26.43899536132813 M 10.44202995300293 27.43899536132813 C 9.032419204711914 27.43899536132813 7.66495943069458 27.07617568969727 6.377569675445557 26.36076545715332 C 5.758819580078125 26.01689529418945 5.16202974319458 25.59134483337402 4.603769779205322 25.0958251953125 C 4.050869464874268 24.60504531860352 3.530899524688721 24.04141426086426 3.058459520339966 23.42054557800293 C 2.099329710006714 22.16060447692871 1.346509575843811 20.6933650970459 0.8205596208572388 19.05962562561035 C 0.2760196328163147 17.36825561523438 -3.659057483673678e-07 15.57150459289551 -3.659057483673678e-07 13.71949481964111 C -3.659057483673678e-07 11.86723518371582 0.2760196328163147 10.07060527801514 0.8205596208572388 8.379124641418457 C 1.346509575843811 6.745504856109619 2.099329710006714 5.278264999389648 3.058459520339966 4.018314838409424 C 3.530899524688721 3.397444725036621 4.050869464874268 2.833824872970581 4.603769779205322 2.343044757843018 C 5.16202974319458 1.847514867782593 5.758819580078125 1.421964764595032 6.377569675445557 1.078104853630066 C 7.66495943069458 0.3626948297023773 9.032419204711914 4.819641162612243e-06 10.44202995300293 4.819641162612243e-06 C 11.58336925506592 4.819641162612243e-06 12.70525932312012 0.2403448224067688 13.77649974822998 0.7142848372459412 C 11.72268962860107 1.623014807701111 9.958109855651855 3.324734926223755 8.67333984375 5.635594844818115 C 7.714739799499512 7.359794616699219 7.086439609527588 9.317375183105469 6.81779956817627 11.39030456542969 C 8.017979621887207 10.24321460723877 9.517179489135742 9.561985015869141 11.143479347229 9.561985015869141 C 15.08508968353271 9.561985015869141 18.28035926818848 13.56384468078613 18.28035926818848 18.50036430358887 C 18.28035926818848 23.43701553344727 15.08508968353271 27.43886566162109 11.143479347229 27.43886566162109 C 11.0361795425415 27.43886566162109 10.92927932739258 27.43588447570801 10.82313919067383 27.43002510070801 C 10.6963996887207 27.43599510192871 10.5692892074585 27.43899536132813 10.44202995300293 27.43899536132813 Z"/>
      </g>
    </g>
    <g class="cls-5" transform="matrix(1, 0, 0, 1, 16.09, 32)">
      <g id="Union_2-2" data-name="Union 2" class="cls-2" transform="translate(49.65 43) rotate(180)">
        <path class="cls-3" d="M 10.44203853607178 26.9389820098877 C 9.118508338928223 26.9389820098877 7.832748889923096 26.59739303588867 6.620448589324951 25.92371368408203 C 6.033468723297119 25.59751319885254 5.466628551483154 25.19315338134766 4.935688495635986 24.72188377380371 C 4.40678882598877 24.25240325927734 3.909068584442139 23.71270370483398 3.456358671188354 23.11776351928711 C 2.531798601150513 21.90323257446289 1.80513870716095 20.48635292053223 1.296498656272888 18.90640258789063 C 0.7679786682128906 17.26481246948242 0.4999986886978149 15.51968288421631 0.4999986886978149 13.71949291229248 C 0.4999986886978149 11.9192533493042 0.7679786682128906 10.17404270172119 1.296498656272888 8.532342910766602 C 1.805158734321594 6.952453136444092 2.531818628311157 5.535603046417236 3.456298589706421 4.321172714233398 C 3.909048795700073 3.726172924041748 4.406768798828125 3.18647289276123 4.935688495635986 2.716982841491699 C 5.466598510742188 2.245723009109497 6.033438682556152 1.841372966766357 6.620458602905273 1.515152931213379 C 7.832598686218262 0.8415529131889343 9.118369102478027 0.500002920627594 10.44203853607178 0.500002920627594 C 11.15017223358154 0.500002920627594 11.85076427459717 0.5987585186958313 12.53525066375732 0.79442298412323 C 10.82558155059814 1.812559366226196 9.353886604309082 3.382569789886475 8.236349105834961 5.392632961273193 C 7.245268821716309 7.175232887268066 6.601168632507324 9.171523094177246 6.321948528289795 11.32604312896729 L 6.140028476715088 12.72972297668457 L 7.163268566131592 11.75176334381104 C 8.31989860534668 10.64630317687988 9.696228981018066 10.06199264526367 11.14347839355469 10.06199264526367 C 14.80306911468506 10.06199264526367 17.78035926818848 13.84743309020996 17.78035926818848 18.50036239624023 C 17.78035926818848 23.15336227416992 14.80306911468506 26.93886375427246 11.14347839355469 26.93886375427246 C 11.04615879058838 26.93886375427246 10.94766902923584 26.93614196777344 10.85074901580811 26.93078231811523 L 10.82519912719727 26.92937278747559 L 10.79964828491211 26.93057250976563 C 10.6810188293457 26.93615341186523 10.56069850921631 26.9389820098877 10.44203853607178 26.9389820098877 Z"/>
        <path class="cls-4" d="M 10.44203853607178 26.4389820098877 C 10.55289840698242 26.4389820098877 10.66531848907471 26.43634223937988 10.77615833282471 26.43112373352051 L 10.82726860046387 26.4287223815918 L 10.8783483505249 26.43155288696289 C 10.96611881256104 26.43640327453613 11.05531883239746 26.43886375427246 11.14347839355469 26.43886375427246 C 14.52736854553223 26.43886375427246 17.28035926818848 22.87766265869141 17.28035926818848 18.50036239624023 C 17.28035926818848 14.12313270568848 14.52736854553223 10.56199264526367 11.14347839355469 10.56199264526367 C 9.827408790588379 10.56199264526367 8.570528984069824 11.09840297698975 7.508728504180908 12.1132230758667 L 5.462258815765381 14.06915283203125 L 5.826088905334473 11.2617826461792 C 6.113488674163818 9.044233322143555 6.777378559112549 6.987823009490967 7.799348831176758 5.149672985076904 C 8.734644889831543 3.467389345169067 9.911860466003418 2.080105543136597 11.267991065979 1.048359632492065 C 10.99424648284912 1.016167640686035 10.71870136260986 1.000002861022949 10.44203853607178 1.000002861022949 C 9.20435905456543 1.000002861022949 8.000308990478516 1.320372939109802 6.863338470458984 1.952192902565002 C 6.308158874511719 2.260722875595093 5.771278858184814 2.643842935562134 5.267608642578125 3.090912818908691 C 4.76288890838623 3.538932800292969 4.287368774414063 4.05469274520874 3.854138612747192 4.624022960662842 C 2.964068651199341 5.793252944946289 2.263688564300537 7.159762859344482 1.772448658943176 8.685572624206543 C 1.259888648986816 10.2776927947998 0.9999986886978149 11.97134304046631 0.9999986886978149 13.71949291229248 C 0.9999986886978149 15.4675931930542 1.259888648986816 17.16116333007813 1.772448658943176 18.75318336486816 C 2.263668775558472 20.279052734375 2.964048624038696 21.64558219909668 3.85425877571106 22.81499290466309 C 4.287378787994385 23.38418197631836 4.762898445129395 23.89994239807129 5.267598628997803 24.34794235229492 C 5.771308898925781 24.7950325012207 6.308188915252686 25.17816352844238 6.863328456878662 25.48666381835938 C 8.000448226928711 26.11857223510742 9.204508781433105 26.4389820098877 10.44203853607178 26.4389820098877 M 10.44203853607178 27.4389820098877 C 9.032418251037598 27.4389820098877 7.664958477020264 27.07617378234863 6.377578735351563 26.36076354980469 C 5.758818626403809 26.01690292358398 5.162028789520264 25.59134292602539 4.603768825531006 25.09582328796387 C 4.050868511199951 24.60504341125488 3.530898571014404 24.04141235351563 3.058458566665649 23.4205436706543 C 2.099328756332397 22.16060256958008 1.346508622169495 20.69336318969727 0.8205586671829224 19.05962371826172 C 0.276008665561676 17.36825370788574 -1.319580064773618e-06 15.57150268554688 -1.319580064773618e-06 13.71949291229248 C -1.319580064773618e-06 11.86723327636719 0.276008665561676 10.07061290740967 0.8205586671829224 8.379122734069824 C 1.346508622169495 6.745502948760986 2.099328756332397 5.278263092041016 3.058458566665649 4.018312931060791 C 3.530898571014404 3.397442817687988 4.050868511199951 2.833822965621948 4.603768825531006 2.343042850494385 C 5.162028789520264 1.84751296043396 5.758818626403809 1.421962857246399 6.377578735351563 1.078102946281433 C 7.664958477020264 0.3626929223537445 9.032418251037598 2.912292529799743e-06 10.44203853607178 2.912292529799743e-06 C 11.5833683013916 2.912292529799743e-06 12.7052583694458 0.240342915058136 13.77649879455566 0.7142928838729858 C 11.72268867492676 1.623012900352478 9.958118438720703 3.324733018875122 8.673348426818848 5.635592937469482 C 7.714738845825195 7.359792709350586 7.086448669433594 9.317373275756836 6.817798614501953 11.39030265808105 C 8.017988204956055 10.24321269989014 9.517178535461426 9.561992645263672 11.14347839355469 9.561992645263672 C 15.0850887298584 9.561992645263672 18.28035926818848 13.5638427734375 18.28035926818848 18.50036239624023 C 18.28035926818848 23.43701362609863 15.0850887298584 27.43886375427246 11.14347839355469 27.43886375427246 C 11.03617858886719 27.43886375427246 10.92928886413574 27.43589210510254 10.82313823699951 27.43002319335938 C 10.69640827178955 27.43598365783691 10.56929874420166 27.4389820098877 10.44203853607178 27.4389820098877 Z"/>
      </g>
    </g>
  </g>
</svg>
