<?xml version="1.0" encoding="utf-8"?>
<!-- Generator: Adobe Illustrator 21.0.0, SVG Export Plug-In . SVG Version: 6.00 Build 0)  -->
<svg version="1.1" id="Capa_1" xmlns="http://www.w3.org/2000/svg" xmlns:xlink="http://www.w3.org/1999/xlink" x="0px" y="0px"
	 viewBox="0 0 542.2 542.2" style="enable-background:new 0 0 542.2 542.2;" xml:space="preserve">
<style type="text/css">
	.st0{fill:#414141;}
</style>
<g>
	<g>
		<path class="st0" d="M432.5,310.6c0-9.9-3.5-18.6-10.6-26L217.8,80.8c-7.2-7.2-16.9-13.4-29.1-18.4c-12.2-5-23.3-7.6-33.4-7.6
			H36.5c-9.9,0-18.5,3.6-25.7,10.8C3.6,72.9,0,81.5,0,91.4v118.8c0,10.1,2.5,21.2,7.6,33.4c5,12.2,11.2,21.8,18.4,28.8l204.1,204.4
			c7,7,15.6,10.6,25.7,10.6c9.9,0,18.6-3.5,26-10.6L422,336.3C429,329.3,432.5,320.7,432.5,310.6z M117.2,172
			c-7.1,7.1-15.8,10.7-25.8,10.7c-10.1,0-18.7-3.6-25.8-10.7c-7.1-7.1-10.7-15.7-10.7-25.8c0-10.1,3.6-18.7,10.7-25.8
			c7.1-7.1,15.8-10.7,25.8-10.7c10.1,0,18.7,3.6,25.8,10.7c7.1,7.1,10.7,15.7,10.7,25.8C127.9,156.3,124.3,164.9,117.2,172z"/>
		<path class="st0" d="M531.6,284.7L327.5,80.8c-7.2-7.2-16.9-13.4-29.1-18.4c-12.2-5-23.3-7.6-33.4-7.6h-64
			c10.1,0,21.2,2.5,33.4,7.6c12.2,5,21.9,11.2,29.1,18.4l204.1,203.9c7,7.4,10.6,16.1,10.6,26c0,10.1-3.5,18.6-10.6,25.7
			L333.5,470.5c5.7,5.9,10.8,10.2,15.1,12.8c4.4,2.7,10,4,16.8,4c9.9,0,18.6-3.5,26-10.6l140.2-140.5c7-7,10.6-15.6,10.6-25.7
			C542.2,300.7,538.7,292.1,531.6,284.7z"/>
	</g>
</g>
</svg>
