<svg id="user" xmlns="http://www.w3.org/2000/svg" width="19" height="20" viewBox="0 0 19 20">
  <path id="Path_263" data-name="Path 263" d="M9.5,11A5.5,5.5,0,1,1,15,5.5,5.506,5.506,0,0,1,9.5,11Zm0-10A4.5,4.5,0,1,0,14,5.5,4.505,4.505,0,0,0,9.5,1Z"/>
  <path id="Path_264" data-name="Path 264" d="M17.5,20H1.5A1.5,1.5,0,0,1,0,18.5a5.972,5.972,0,0,1,1.225-3.3,7.128,7.128,0,0,1,2.869-2.219A13.345,13.345,0,0,1,9.5,12a13.345,13.345,0,0,1,5.406.981A7.137,7.137,0,0,1,17.775,15.2,5.972,5.972,0,0,1,19,18.5,1.5,1.5,0,0,1,17.5,20Zm-8-7c-3.487,0-6.06.953-7.441,2.756A5.08,5.08,0,0,0,1,18.5a.5.5,0,0,0,.5.5h16a.5.5,0,0,0,.5-.5,5.062,5.062,0,0,0-1.059-2.744C15.559,13.953,12.986,13,9.5,13Z"/>
</svg>
