<svg xmlns="http://www.w3.org/2000/svg" width="19" height="17.001" viewBox="0 0 19 17.001">
  <g id="warning" transform="translate(0 -1.999)">
    <path id="Path_346" data-name="Path 346" d="M18.5,19H.5a.5.5,0,0,1-.436-.746l9-16a.5.5,0,0,1,.872,0l9,16A.5.5,0,0,1,18.5,19ZM1.355,18h16.29L9.5,3.52,1.355,18Z"/>
    <path id="Path_347" data-name="Path 347" d="M9.5,14a.5.5,0,0,1-.5-.5v-5a.5.5,0,0,1,1,0v5A.5.5,0,0,1,9.5,14Z"/>
    <path id="Path_348" data-name="Path 348" d="M9.5,17a.5.5,0,0,1-.5-.5v-1a.5.5,0,0,1,1,0v1A.5.5,0,0,1,9.5,17Z"/>
  </g>
</svg>
